HIERARCHY
ROOT Hips
{
    OFFSET 0.000000 0.000000 0.000000
    CHANNELS 6 Xposition Yposition Zposition Zrotation Xrotation Yrotation
    JOINT Spine
    {
        OFFSET -0.000000 14.517291 0.000000
        CHANNELS 3 Zrotation Xrotation Yrotation
        JOINT Spine1
        {
            OFFSET -0.000000 37.558300 0.000000
            CHANNELS 3 Zrotation Xrotation Yrotation
            JOINT Neck
            {
                OFFSET -0.000000 37.404057 3.400369
                CHANNELS 3 Zrotation Xrotation Yrotation
                JOINT Head
                {
                    OFFSET -0.000000 24.785618 -3.540803
                    CHANNELS 3 Zrotation Xrotation Yrotation
                    End Site
                    {
                        OFFSET -0.000000 35.408028 0.000000
                    }
                }
            }
            JOINT LeftShoulder
            {
                OFFSET 6.992933 33.973492 -0.192664
                CHANNELS 3 Zrotation Xrotation Yrotation
                JOINT LeftArm
                {
                    OFFSET 21.527611 0.000000 0.000000
                    CHANNELS 3 Zrotation Xrotation Yrotation
                    JOINT LeftForeArm
                    {
                        OFFSET 56.353916 0.000000 0.000000
                        CHANNELS 3 Zrotation Xrotation Yrotation
                        JOINT LeftHand
                        {
                            OFFSET 47.774071 0.000000 0.000000
                            CHANNELS 3 Zrotation Xrotation Yrotation
                            End Site
                            {
                                OFFSET 26.556021 0.000000 0.000000
                            }
                        }
                    }
                }
            }
            JOINT RightShoulder
            {
                OFFSET -7.065357 33.973492 -0.192664
                CHANNELS 3 Zrotation Xrotation Yrotation
                JOINT RightArm
                {
                    OFFSET -21.527611 0.000000 0.000000
                    CHANNELS 3 Zrotation Xrotation Yrotation
                    JOINT RightForeArm
                    {
                        OFFSET -56.353916 0.000000 0.000000
                        CHANNELS 3 Zrotation Xrotation Yrotation
                        JOINT RightHand
                        {
                            OFFSET -47.774071 0.000000 0.000000
                            CHANNELS 3 Zrotation Xrotation Yrotation
                            End Site
                            {
                                OFFSET -26.556021 0.000000 0.000000
                            }
                        }
                    }
                }
            }
        }
    }
    JOINT LeftUpLeg
    {
        OFFSET 17.704014 0.000000 0.000000
        CHANNELS 3 Zrotation Xrotation Yrotation
        JOINT LeftLeg
        {
            OFFSET -0.000000 -81.181816 0.000000
            CHANNELS 3 Zrotation Xrotation Yrotation
            JOINT LeftFoot
            {
                OFFSET -0.000000 -62.821102 0.000000
                CHANNELS 3 Zrotation Xrotation Yrotation
                JOINT LeftToeBase
                {
                    OFFSET -0.000000 -11.507608 26.556021
                    CHANNELS 3 Zrotation Xrotation Yrotation
                    End Site
                    {
                        OFFSET -0.000000 0.000000 7.081605
                    }
                }
            }
        }
    }
    JOINT RightUpLeg
    {
        OFFSET -17.704014 0.000000 0.000000
        CHANNELS 3 Zrotation Xrotation Yrotation
        JOINT RightLeg
        {
            OFFSET -0.000000 -81.181816 0.000000
            CHANNELS 3 Zrotation Xrotation Yrotation
            JOINT RightFoot
            {
                OFFSET -0.000000 -62.821102 0.000000
                CHANNELS 3 Zrotation Xrotation Yrotation
                JOINT RightToeBase
                {
                    OFFSET -0.000000 -11.507608 26.556021
                    CHANNELS 3 Zrotation Xrotation Yrotation
                    End Site
                    {
                        OFFSET -0.000000 0.000000 7.081605
                    }
                }
            }
        }
    }
}
MOTION
Frames:    5
Frame Time:    0.008333
22.144421    149.483139    47.622055    4.245542    0.744590    -69.232071    -1.224892    1.386463    -0.500277    -0.169570    0.003090    -0.172726    19.444134    6.990185    14.269692    -13.984329    -0.475117    11.147761    11.125721    2.562743    -14.696905    -10.737050    -3.279265    -21.851299    14.710888    -0.887239    -44.025745    -5.717188    7.323731    -42.857273    -10.814191    -2.158930    -6.638052    29.636776    -25.178637    39.786034    6.837381    -22.483341    102.603142    17.727495    -25.737677    31.213154    32.691837    -22.638939    18.147207    -22.642450    35.212967    -7.393177    -9.564781    -12.054436    48.650539    0.000000    0.000000    0.000000    -28.801973    -17.474806    -15.029188    7.089231    38.400906    -8.171036    16.280695    -11.256597    2.022464    0.000000    0.000000    0.000000    
22.120451    149.194351    47.692413    4.220565    0.688114    -69.233803    -1.265527    1.435774    -0.520914    -0.163598    0.005651    -0.179843    19.469769    7.039433    14.246775    -14.021648    -0.483028    11.123905    11.123300    2.568283    -14.723618    -10.759192    -3.322341    -21.868750    14.718765    -0.934971    -43.903706    -5.786022    7.289957    -42.883923    -10.812230    -2.147761    -6.626393    29.602028    -25.161972    39.766750    6.842949    -22.521763    102.583412    17.741230    -25.778507    31.192892    32.858685    -22.759075    18.303492    -23.014339    35.703087    -7.164187    -9.342278    -12.272764    48.514385    0.000000    0.000000    0.000000    -29.018867    -17.640549    -14.986798    7.302135    38.943207    -8.305052    16.323946    -11.576068    2.108780    0.000000    0.000000    0.000000    
22.076984    148.900513    47.768867    4.145670    0.613083    -69.224007    -1.303391    1.530628    -0.543765    -0.155750    0.032425    -0.187906    19.446449    7.033144    14.237096    -13.980917    -0.455402    11.123962    11.087267    2.586688    -14.729379    -10.737283    -3.385574    -21.907505    14.672988    -0.983093    -43.809692    -5.716815    7.180892    -42.856876    -10.825224    -2.140457    -6.651018    29.660830    -25.219995    39.802795    6.876395    -22.431789    102.569702    17.769384    -25.719223    31.195850    33.012341    -22.830572    18.466778    -23.360785    36.215923    -7.014485    -9.116500    -12.522367    48.398682    0.000000    0.000000    0.000000    -29.225857    -17.745674    -14.998029    7.444542    39.492821    -8.416786    16.391165    -11.878935    2.289289    0.000000    0.000000    0.000000    
22.040083    148.602036    47.835350    4.093292    0.554738    -69.206833    -1.331537    1.611096    -0.575809    -0.174255    0.025666    -0.199166    19.499252    7.064765    14.216434    -14.007792    -0.431623    11.102330    11.105887    2.614756    -14.747386    -10.773540    -3.486726    -21.939835    14.744094    -0.923202    -43.684669    -5.746552    7.262429    -42.861862    -10.814851    -2.130280    -6.635306    29.636421    -25.158915    39.767975    6.845952    -22.524704    102.570335    17.790564    -25.774006    31.169472    33.185616    -22.932358    18.627888    -23.727234    36.718182    -6.853920    -8.899060    -12.757444    48.298634    0.000000    0.000000    0.000000    -29.427271    -17.879108    -15.088659    7.538280    40.059719    -8.466394    16.469469    -12.184702    2.455608    0.000000    0.000000    0.000000    
21.993759    148.293884    47.907646    4.051893    0.491315    -69.174698    -1.374057    1.661593    -0.612345    -0.170521    0.061694    -0.211625    19.425323    7.027656    14.200576    -13.871164    -0.383967    11.111118    11.086919    2.621896    -14.762893    -10.762251    -3.475267    -21.968723    14.801531    -1.018463    -43.548798    -5.780807    7.188613    -42.940063    -10.828888    -2.110706    -6.675258    29.718777    -25.237722    39.811520    6.880213    -22.393011    102.563057    17.700024    -25.708735    31.156677    33.342346    -23.039591    18.760054    -24.109241    37.201691    -6.657796    -8.648067    -12.997083    48.188255    0.000000    0.000000    0.000000    -29.650240    -18.000483    -15.159386    7.666547    40.615791    -8.534199    16.548033    -12.508420    2.630087    0.000000    0.000000    0.000000    
